# xmcd CD database file
# Copyright (C) 1993-1998 Ti Kan
# 
# Track frame offsets:
#     183
#     14808
#     24845
#     45075
#     57320
#     68173
#     80373
#     97953
#     109950
#     125228
#     149363
#     177078
#     193165
#     209275
#     229895
#     240553
#     263768
# 
# Disc length: 3752 seconds
# 
# Revision: 1
# Processed by: cddbd v1.4b41PL1 Copyright (c) Steve Scherf et al.
# Submitted via: DiscPlay 4.0.3
# 
DISCID=eb0ea611
DTITLE=Glen Campbell - Glen Campbell Live
DYEAR=1900
DGENRE=
TTITLE0=Rhinestone Cowboy
TTITLE1=Gentle on my mind
TTITLE2=Medley
TTITLE3=By the time i get to Phoenix
TTITLE4=Dreams of the everyday housewife
TTITLE5=Heartache number three
TTITLE6=Please come to Boston
TTITLE7=It's only make believe
TTITLE8=Crying
TTITLE9=Bluegrass medley
TTITLE10=Milk cow blues
TTITLE11=Rollin'
TTITLE12=I'm so lonesome I could cry
TTITLE13=Amazing grace
TTITLE14=Try a little kindness
TTITLE15=Mull of Kintyre
TTITLE16=Southern nights
EXTD=
EXTT0=
EXTT1=
EXTT2=Wichita Lineman\nGalveston\nCountry Boy\n
EXTT3=
EXTT4=
EXTT5=
EXTT6=
EXTT7=
EXTT8=
EXTT9=
EXTT10=
EXTT11=
EXTT12=
EXTT13=
EXTT14=
EXTT15=
EXTT16=
PLAYORDER=
